<svg width="8.4667mm" height="8.4667mm" version="1.1" viewBox="0 0 8.4667 8.4667" xmlns="http://www.w3.org/2000/svg">
 <g transform="translate(-55.843 -60.132)">
  <g transform="matrix(2 0 0 2 -43.143 -60.132)">
   <rect x="49.493" y="60.132" width="4.2333" height="4.2333" rx=".52037" ry=".52037" fill="#0ff"/>
   <path d="m53.727 62.249-4.2333 1.0346v0.56172c0 0.28829 0.2321 0.52038 0.52038 0.52038h3.1926c0.28829 0 0.52038-0.23209 0.52038-0.52038z" fill="#0f0"/>
   <g transform="matrix(3.5 0 0 3.5 -126.25 -153.77)">
    <path d="m50.287 61.455 0.52917 0.26458 0.52917-0.26458-0.52917-0.26458z" fill="#b3b3b3"/>
    <path d="m50.287 61.455v0.52917l0.52917 0.26458v-0.52917z" fill="#999"/>
    <path d="m50.816 61.72v0.52917l0.52917-0.26458v-0.52917z" fill="#666"/>
   </g>
  </g>
 </g>
</svg>
